<svg width="22" height="22" viewBox="2 0 20 22" fill="none" xmlns="http://www.w3.org/2000/svg">
<path d="M19.34 9.71903C19.34 9.69142 19.3176 9.66903 19.29 9.66903C19.2624 9.66903 19.24 9.69142 19.24 9.71903H19.29H19.34ZM4.75999 9.71903C4.75999 9.69142 4.73761 9.66903 4.70999 9.66903C4.68238 9.66903 4.65999 9.69142 4.65999 9.71903H4.70999H4.75999ZM14.5132 20.7071L14.5018 20.6585L14.5018 20.6585L14.5132 20.7071ZM9.48673 20.7071L9.49823 20.6585L9.49823 20.6585L9.48673 20.7071ZM14.8284 5.01423L14.7929 5.04946L14.7929 5.04946L14.8284 5.01423ZM20.9645 11.2649C20.984 11.2845 21.0156 11.2846 21.0352 11.2652C21.0548 11.2457 21.0549 11.2141 21.0355 11.1945L21 11.2297L20.9645 11.2649ZM9.17157 5.01423L9.20705 5.04946L9.20705 5.04946L9.17157 5.01423ZM2.96452 11.1945C2.94506 11.2141 2.94517 11.2457 2.96477 11.2652C2.98437 11.2846 3.01602 11.2845 3.03548 11.2649L3 11.2297L2.96452 11.1945ZM9.71842 18.3203L9.66928 18.3111L9.66928 18.3111L9.71842 18.3203ZM9.73776 18.2173L9.78691 18.2265L9.78691 18.2265L9.73776 18.2173ZM14.2622 18.2173L14.2131 18.2265L14.2131 18.2265L14.2622 18.2173ZM14.2816 18.3203L14.3307 18.3111L14.3307 18.3111L14.2816 18.3203ZM13.9918 20.5519L13.9466 20.5304L13.9466 20.5304L13.9918 20.5519ZM13.8299 20.7758C13.818 20.8007 13.8286 20.8306 13.8535 20.8424C13.8784 20.8543 13.9083 20.8437 13.9201 20.8188L13.875 20.7973L13.8299 20.7758ZM10.0082 20.5519L9.96308 20.5734L9.96308 20.5734L10.0082 20.5519ZM10.0799 20.8188C10.0917 20.8437 10.1216 20.8543 10.1465 20.8424C10.1714 20.8306 10.182 20.8007 10.1701 20.7758L10.125 20.7973L10.0799 20.8188ZM11.3611 16.4426L11.3477 16.3944L11.3477 16.3944L11.3611 16.4426ZM12.6389 16.4426L12.6523 16.3944L12.6523 16.3944L12.6389 16.4426ZM19.29 9.71903H19.24V14.6374H19.29H19.34V9.71903H19.29ZM4.70999 14.6374H4.75999V9.71903H4.70999H4.65999V14.6374H4.70999ZM14.5132 20.7071L14.5018 20.6585C12.8562 21.0472 11.1437 21.0472 9.49823 20.6585L9.48673 20.7071L9.47524 20.7558C11.1359 21.1481 12.8641 21.1481 14.5247 20.7558L14.5132 20.7071ZM9.48673 20.7071L9.49823 20.6585C6.72269 20.0028 4.75999 17.5091 4.75999 14.6374H4.70999H4.65999C4.65999 17.5551 6.65413 20.0893 9.47524 20.7558L9.48673 20.7071ZM14.5132 20.7071L14.5247 20.7558C17.3459 20.0893 19.34 17.5551 19.34 14.6374H19.29H19.24C19.24 17.5091 17.2773 20.0028 14.5018 20.6585L14.5132 20.7071ZM14.8284 5.01423L14.7929 5.04946L20.9645 11.2649L21 11.2297L21.0355 11.1945L14.8639 4.979L14.8284 5.01423ZM9.17157 5.01423L9.13609 4.979L2.96452 11.1945L3 11.2297L3.03548 11.2649L9.20705 5.04946L9.17157 5.01423ZM14.8284 5.01423L14.8639 4.979C14.1982 4.30859 13.6955 3.80214 13.2553 3.46391C12.814 3.1248 12.4297 2.95 12 2.95V3V3.05C12.3988 3.05 12.7619 3.2109 13.1944 3.5432C13.628 3.87638 14.1253 4.37704 14.7929 5.04946L14.8284 5.01423ZM9.17157 5.01423L9.20705 5.04946C9.87472 4.37704 10.372 3.87638 10.8056 3.5432C11.2381 3.2109 11.6012 3.05 12 3.05V3V2.95C11.5703 2.95 11.186 3.1248 10.7447 3.46391C10.3045 3.80214 9.80176 4.30859 9.13609 4.979L9.17157 5.01423ZM9.71842 18.3203L9.76757 18.3295L9.78691 18.2265L9.73776 18.2173L9.68862 18.208L9.66928 18.3111L9.71842 18.3203ZM14.2622 18.2173L14.2131 18.2265L14.2324 18.3295L14.2816 18.3203L14.3307 18.3111L14.3114 18.208L14.2622 18.2173ZM13.9918 20.5519L13.9466 20.5304L13.8299 20.7758L13.875 20.7973L13.9201 20.8188L14.0369 20.5734L13.9918 20.5519ZM10.0082 20.5519L9.96308 20.5734L10.0799 20.8188L10.125 20.7973L10.1701 20.7758L10.0534 20.5304L10.0082 20.5519ZM14.2816 18.3203L14.2324 18.3295C14.3724 19.0751 14.2722 19.8462 13.9466 20.5304L13.9918 20.5519L14.0369 20.5734C14.3716 19.87 14.4746 19.0774 14.3307 18.3111L14.2816 18.3203ZM9.71842 18.3203L9.66928 18.3111C9.52543 19.0774 9.62836 19.87 9.96308 20.5734L10.0082 20.5519L10.0534 20.5304C9.72776 19.8462 9.62762 19.0751 9.76757 18.3295L9.71842 18.3203ZM11.3611 16.4426L11.3744 16.4907C11.7839 16.3771 12.2161 16.3771 12.6256 16.4907L12.6389 16.4426L12.6523 16.3944C12.2254 16.2759 11.7746 16.2759 11.3477 16.3944L11.3611 16.4426ZM14.2622 18.2173L14.3114 18.208C14.1474 17.3344 13.5039 16.6307 12.6523 16.3944L12.6389 16.4426L12.6256 16.4907C13.4401 16.7167 14.0561 17.39 14.2131 18.2265L14.2622 18.2173ZM9.73776 18.2173L9.78691 18.2265C9.94392 17.39 10.5599 16.7167 11.3744 16.4907L11.3611 16.4426L11.3477 16.3944C10.4961 16.6307 9.85261 17.3344 9.68862 18.208L9.73776 18.2173Z" fill="#ABABAB"/>
</svg>
