<svg width="19" height="20" viewBox="0 0 19 20" fill="none" xmlns="http://www.w3.org/2000/svg">
<path d="M5.94628 6.80793H11.9779M5.94628 10.2641H9.78461M10.3607 16.6768H11.4221C14.3089 16.6768 16.8201 14.5999 17.4976 11.6521C17.8341 10.1882 17.8341 8.66126 17.4976 7.19741L17.4088 6.81088C16.7557 3.96958 14.627 1.76204 11.9141 1.11264L11.533 1.02141C10.0212 0.659529 8.45132 0.659529 6.93953 1.02141L6.71648 1.07481C3.90677 1.74738 1.70212 4.03371 1.02571 6.97642C0.65585 8.58551 0.65923 10.2787 1.02909 11.8878C1.71607 14.8765 3.73688 17.3638 6.44777 18.5228L6.56593 18.5733C7.73904 19.0749 9.08289 18.4708 9.56425 17.2402C9.69672 16.9015 10.0122 16.6768 10.3607 16.6768Z" stroke-width="1.5" stroke-linecap="round"/>
</svg>
